<svg width="31" height="31" viewBox="0 0 31 31" fill="none" xmlns="http://www.w3.org/2000/svg">
<g clip-path="url(#clip0_1_831)">
<path d="M4.51715 29.7785V24.2871H10.0086" stroke="#FF4F00" stroke-linecap="round" stroke-linejoin="round"/>
<path d="M29.5364 12.8765C30.119 15.9853 29.6531 19.1995 28.2116 22.0148C26.7702 24.8302 24.4349 27.0873 21.5721 28.4321C18.7093 29.7768 15.4811 30.1331 12.394 29.4449C9.30687 28.7568 6.53557 27.0632 4.51493 24.6299M1.46364 18.1244C0.880993 15.0156 1.34693 11.8014 2.78835 8.98604C4.22977 6.17069 6.56509 3.91356 9.42787 2.56881C12.2906 1.22407 15.5189 0.86781 18.606 1.55594C21.6931 2.24408 24.4644 3.93766 26.4851 6.37094" stroke="#FF4F00" stroke-linecap="round" stroke-linejoin="round"/>
<path d="M26.4829 1.22266V6.71409H20.9914M9.05642 16.2399C8.27921 16.1049 8.27921 14.9889 9.05642 14.8538C10.4326 14.6143 11.7062 13.9704 12.715 13.0042C13.7238 12.038 14.422 10.7933 14.7206 9.4288L14.7671 9.21401C14.9354 8.44566 16.0292 8.44123 16.2041 9.20737L16.2617 9.45759C16.5718 10.8159 17.2763 12.0524 18.2868 13.0117C19.2973 13.971 20.5687 14.6103 21.9414 14.8494C22.723 14.9844 22.723 16.1071 21.9414 16.2444C20.569 16.4833 19.2978 17.1223 18.2873 18.0812C17.2769 19.04 16.5722 20.276 16.2617 21.6339L16.2041 21.8819C16.0292 22.6481 14.9354 22.6437 14.7671 21.8753L14.7228 21.6627C14.4239 20.2976 13.725 19.0525 12.7154 18.0862C11.7058 17.12 10.4312 16.4764 9.05421 16.2377L9.05642 16.2399Z" stroke="#FF4F00" stroke-linecap="round" stroke-linejoin="round"/>
</g>
<defs>
<clipPath id="clip0_1_831">
<rect width="31" height="31" fill="white"/>
</clipPath>
</defs>
</svg>
